<svg width="82" height="8" viewBox="0 0 82 8" fill="none" xmlns="http://www.w3.org/2000/svg">
<path d="M1 3.5C0.723858 3.5 0.5 3.72386 0.5 4C0.5 4.27614 0.723858 4.5 1 4.5V3.5ZM81.3536 4.35355C81.5488 4.15829 81.5488 3.84171 81.3536 3.64645L78.1716 0.464466C77.9763 0.269204 77.6597 0.269204 77.4645 0.464466C77.2692 0.659728 77.2692 0.976311 77.4645 1.17157L80.2929 4L77.4645 6.82843C77.2692 7.02369 77.2692 7.34027 77.4645 7.53553C77.6597 7.7308 77.9763 7.7308 78.1716 7.53553L81.3536 4.35355ZM3.5 4.5C3.77614 4.5 4 4.27614 4 4C4 3.72386 3.77614 3.5 3.5 3.5V4.5ZM6.5 3.5C6.22386 3.5 6 3.72386 6 4C6 4.27614 6.22386 4.5 6.5 4.5V3.5ZM11.5 4.5C11.7761 4.5 12 4.27614 12 4C12 3.72386 11.7761 3.5 11.5 3.5V4.5ZM14.5 3.5C14.2239 3.5 14 3.72386 14 4C14 4.27614 14.2239 4.5 14.5 4.5V3.5ZM19.5 4.5C19.7761 4.5 20 4.27614 20 4C20 3.72386 19.7761 3.5 19.5 3.5V4.5ZM22.5 3.5C22.2239 3.5 22 3.72386 22 4C22 4.27614 22.2239 4.5 22.5 4.5V3.5ZM27.5 4.5C27.7761 4.5 28 4.27614 28 4C28 3.72386 27.7761 3.5 27.5 3.5V4.5ZM30.5 3.5C30.2239 3.5 30 3.72386 30 4C30 4.27614 30.2239 4.5 30.5 4.5V3.5ZM35.5 4.5C35.7761 4.5 36 4.27614 36 4C36 3.72386 35.7761 3.5 35.5 3.5V4.5ZM38.5 3.5C38.2239 3.5 38 3.72386 38 4C38 4.27614 38.2239 4.5 38.5 4.5V3.5ZM43.5 4.5C43.7761 4.5 44 4.27614 44 4C44 3.72386 43.7761 3.5 43.5 3.5V4.5ZM46.5 3.5C46.2239 3.5 46 3.72386 46 4C46 4.27614 46.2239 4.5 46.5 4.5V3.5ZM51.5 4.5C51.7761 4.5 52 4.27614 52 4C52 3.72386 51.7761 3.5 51.5 3.5V4.5ZM54.5 3.5C54.2239 3.5 54 3.72386 54 4C54 4.27614 54.2239 4.5 54.5 4.5V3.5ZM59.5 4.5C59.7761 4.5 60 4.27614 60 4C60 3.72386 59.7761 3.5 59.5 3.5V4.5ZM62.5 3.5C62.2239 3.5 62 3.72386 62 4C62 4.27614 62.2239 4.5 62.5 4.5V3.5ZM67.5 4.5C67.7761 4.5 68 4.27614 68 4C68 3.72386 67.7761 3.5 67.5 3.5V4.5ZM70.5 3.5C70.2239 3.5 70 3.72386 70 4C70 4.27614 70.2239 4.5 70.5 4.5V3.5ZM75.5 4.5C75.7761 4.5 76 4.27614 76 4C76 3.72386 75.7761 3.5 75.5 3.5V4.5ZM78.5 3.5C78.2239 3.5 78 3.72386 78 4C78 4.27614 78.2239 4.5 78.5 4.5V3.5ZM1 4.5H3.5V3.5H1V4.5ZM6.5 4.5H11.5V3.5H6.5V4.5ZM14.5 4.5H19.5V3.5H14.5V4.5ZM22.5 4.5H27.5V3.5H22.5V4.5ZM30.5 4.5H35.5V3.5H30.5V4.5ZM38.5 4.5H43.5V3.5H38.5V4.5ZM46.5 4.5H51.5V3.5H46.5V4.5ZM54.5 4.5H59.5V3.5H54.5V4.5ZM62.5 4.5H67.5V3.5H62.5V4.5ZM70.5 4.5H75.5V3.5H70.5V4.5ZM78.5 4.5H81V3.5H78.5V4.5Z" fill="#999999"/>
</svg>
